<?xml version="1.0" encoding="UTF-8" standalone="no"?>
<!DOCTYPE svg PUBLIC "-//W3C//DTD SVG 1.1//EN" "http://www.w3.org/Graphics/SVG/1.1/DTD/svg11.dtd">
<svg xmlns="http://www.w3.org/2000/svg" version="1.1" viewBox="0.00 0.00 512.00 512.00">
<g>
<path fill="#198754" d="
  M 250.82 0.00
  L 261.30 0.00
  C 303.89 2.09 341.27 26.45 359.52 65.07
  Q 388.03 125.41 418.20 189.14
  C 425.10 203.72 423.84 219.43 416.84 233.82
  Q 405.08 258.00 381.65 268.17
  A 0.27 0.27 0.0 0 0 381.61 268.64
  Q 406.48 285.04 432.80 302.15
  Q 442.66 308.56 448.58 313.41
  Q 479.83 339.03 489.71 378.46
  Q 491.42 385.27 493.06 398.16
  Q 499.47 448.47 505.89 498.77
  Q 507.27 509.58 497.39 512.00
  L 303.21 512.00
  Q 296.56 510.43 294.98 504.71
  C 293.69 500.06 295.77 495.24 300.02 493.09
  Q 302.34 491.92 306.60 491.93
  Q 340.81 492.07 375.31 491.96
  Q 375.63 491.96 375.63 491.65
  Q 375.61 459.13 375.63 425.16
  C 375.63 411.43 395.64 411.19 395.63 425.76
  Q 395.59 462.55 395.63 491.39
  Q 395.63 492.00 396.24 492.00
  L 484.45 492.00
  Q 484.89 492.00 484.83 491.56
  Q 479.12 447.65 473.74 404.26
  Q 472.12 391.13 470.62 384.68
  Q 462.84 351.26 436.44 329.32
  Q 431.08 324.87 420.46 317.98
  Q 390.73 298.68 360.91 278.93
  Q 360.45 278.63 359.94 278.86
  Q 329.72 292.98 295.01 309.58
  Q 283.87 314.91 277.59 316.87
  Q 256.90 323.33 235.84 317.18
  Q 229.18 315.24 217.38 309.56
  Q 186.34 294.61 152.38 278.65
  A 0.73 0.71 -48.5 0 0 151.68 278.70
  Q 118.41 300.51 85.84 321.86
  Q 50.75 344.86 41.41 384.67
  Q 39.96 390.85 38.26 404.42
  Q 32.80 447.91 27.17 491.67
  A 0.29 0.29 0.0 0 0 27.46 492.00
  L 115.96 492.00
  A 0.42 0.42 0.0 0 0 116.38 491.58
  Q 116.33 458.67 116.37 425.14
  C 116.39 411.45 136.38 411.40 136.37 425.29
  Q 136.35 460.00 136.36 491.61
  A 0.37 0.37 0.0 0 0 136.73 491.98
  Q 173.29 492.05 213.92 491.94
  C 220.21 491.92 225.44 495.05 225.47 502.02
  Q 225.50 509.85 216.74 512.00
  L 14.50 512.00
  C 8.52 510.64 5.14 506.08 5.91 500.14
  Q 12.70 447.70 19.00 397.19
  Q 20.37 386.19 22.28 378.50
  Q 31.50 341.37 60.45 315.95
  Q 66.85 310.33 76.48 304.05
  Q 104.46 285.81 130.33 268.77
  A 0.41 0.40 -49.5 0 0 130.28 268.06
  C 116.66 261.84 104.36 251.92 97.46 238.56
  C 91.30 226.62 87.59 210.59 90.89 197.25
  Q 91.99 192.83 94.86 186.81
  Q 124.51 124.49 152.45 65.01
  Q 162.84 42.89 181.89 26.93
  Q 211.71 1.93 250.82 0.00
  Z
  M 143.85 130.12
  Q 143.23 131.43 144.35 130.51
  Q 170.14 109.14 201.40 98.08
  C 259.53 77.49 321.04 91.94 367.84 130.64
  Q 368.87 131.49 368.30 130.29
  Q 354.09 100.58 341.94 74.55
  C 326.28 41.02 294.38 20.35 257.17 19.97
  Q 228.11 19.66 204.91 34.53
  Q 182.28 49.02 170.98 72.77
  Q 157.26 101.63 143.85 130.12
  Z
  M 198.98 120.42
  Q 195.69 121.81 192.43 123.33
  A 0.91 0.89 77.8 0 0 191.91 124.15
  Q 192.03 154.35 191.88 187.53
  Q 191.84 198.15 193.44 205.09
  C 204.86 254.64 266.09 272.42 301.80 235.85
  Q 314.96 222.38 318.70 204.24
  Q 320.18 197.06 320.12 186.93
  Q 319.94 154.13 320.06 123.91
  A 0.65 0.63 -77.8 0 0 319.70 123.33
  C 281.36 105.20 237.95 104.01 198.98 120.42
  Z
  M 163.39 261.33
  C 184.32 271.34 205.33 281.12 226.03 291.17
  Q 238.23 297.09 244.56 298.65
  Q 261.78 302.89 279.26 294.54
  Q 323.45 273.41 368.66 252.29
  Q 381.42 246.33 385.50 242.94
  C 397.69 232.83 403.83 217.23 401.09 201.52
  Q 400.58 198.60 399.01 196.13
  Q 375.14 158.79 340.50 135.15
  A 0.28 0.28 0.0 0 0 340.06 135.38
  Q 339.96 160.42 340.10 186.76
  Q 340.15 197.90 338.79 205.67
  C 332.76 239.86 306.49 266.76 272.39 273.64
  C 250.62 278.04 227.75 273.46 209.62 261.25
  Q 180.06 241.35 173.22 205.67
  Q 171.79 198.24 171.88 185.96
  Q 172.06 160.90 171.91 135.43
  A 0.17 0.17 0.0 0 0 171.65 135.29
  Q 135.91 159.23 113.14 195.77
  Q 111.39 198.57 110.88 201.63
  C 107.65 220.96 116.60 238.12 133.61 247.33
  C 143.03 252.42 153.50 256.60 163.39 261.33
  Z"
/>
<path fill="#198754" d="
  M 261.92 512.00
  L 259.76 512.00
  C 252.98 510.70 248.94 504.30 251.97 497.79
  C 257.20 486.52 274.31 493.29 270.19 505.50
  Q 268.38 510.87 261.92 512.00
  Z"
/>
</g>
<g>
<path fill="#198754" d="
  M 266.31 190.37
  C 266.16 195.93 267.21 201.24 261.69 204.77
  C 256.59 208.03 249.97 206.06 247.39 200.72
  Q 246.03 197.92 246.23 193.51
  Q 246.45 188.63 246.25 183.25
  C 246.03 177.26 249.11 171.72 255.72 171.29
  C 257.42 171.17 259.19 171.05 260.81 170.47
  C 270.87 166.83 273.91 153.68 265.40 146.57
  C 256.49 139.12 242.47 144.90 242.31 156.87
  C 242.12 171.33 220.15 170.65 222.42 153.69
  Q 224.42 138.66 235.86 130.03
  C 248.50 120.51 265.75 120.96 277.84 130.94
  C 298.79 148.23 292.36 180.58 266.95 189.50
  Q 266.33 189.71 266.31 190.37
  Z"
/>
<ellipse fill="#198754" cx="0.00" cy="0.00" transform="translate(256.34,227.26) rotate(-24.4)" rx="10.03" ry="9.71"/>
</g>
</svg>
